<svg xmlns="http://www.w3.org/2000/svg" viewBox="0 0 512 512">
  <defs>
    <linearGradient id="bg" x1="0" y1="0" x2="1" y2="1">
      <stop offset="0%" stop-color="#3B82F6"/>
      <stop offset="100%" stop-color="#1D4ED8"/>
    </linearGradient>
  </defs>
  <rect width="512" height="512" rx="108" fill="url(#bg)"/>
  <!-- Book body -->
  <path d="M160 128 C160 128 256 108 256 108 C256 108 352 128 352 128 L352 368 C352 368 256 348 256 348 C256 348 160 368 160 368 Z" fill="white" opacity="0.95"/>
  <!-- Book spine -->
  <line x1="256" y1="108" x2="256" y2="348" stroke="#3B82F6" stroke-width="3" opacity="0.3"/>
  <!-- Book pages left -->
  <line x1="185" y1="168" x2="245" y2="158" stroke="#CBD5E1" stroke-width="2.5" stroke-linecap="round"/>
  <line x1="185" y1="198" x2="245" y2="188" stroke="#CBD5E1" stroke-width="2.5" stroke-linecap="round"/>
  <line x1="185" y1="228" x2="245" y2="218" stroke="#CBD5E1" stroke-width="2.5" stroke-linecap="round"/>
  <line x1="185" y1="258" x2="230" y2="250" stroke="#CBD5E1" stroke-width="2.5" stroke-linecap="round"/>
  <!-- Book pages right -->
  <line x1="267" y1="158" x2="327" y2="168" stroke="#CBD5E1" stroke-width="2.5" stroke-linecap="round"/>
  <line x1="267" y1="188" x2="327" y2="198" stroke="#CBD5E1" stroke-width="2.5" stroke-linecap="round"/>
  <line x1="267" y1="218" x2="327" y2="228" stroke="#CBD5E1" stroke-width="2.5" stroke-linecap="round"/>
  <line x1="267" y1="250" x2="312" y2="258" stroke="#CBD5E1" stroke-width="2.5" stroke-linecap="round"/>
  <!-- Shadow -->
  <ellipse cx="256" cy="392" rx="80" ry="8" fill="black" opacity="0.1"/>
</svg>
